<?xml version="1.0" standalone="no"?>
<!DOCTYPE svg PUBLIC "-//W3C//DTD SVG 20010904//EN"
 "http://www.w3.org/TR/2001/REC-SVG-20010904/DTD/svg10.dtd">
<svg version="1.0" xmlns="http://www.w3.org/2000/svg"
 width="200.000000pt" height="200.000000pt" viewBox="0 0 200.000000 200.000000"
 preserveAspectRatio="xMidYMid meet">
<metadata>
Created by potrace 1.14, written by Peter Selinger 2001-2017
</metadata>
<g transform="translate(0.000000,200.000000) scale(0.100000,-0.100000)"
fill="#000000" stroke="none">
<path d="M935 1864 c-319 -165 -535 -283 -552 -301 -17 -16 -23 -34 -23 -66 0
-50 -3 -53 -79 -63 -37 -5 -57 -14 -78 -36 l-28 -29 -8 -237 c-5 -130 -6 -364
-4 -520 3 -268 3 -284 -15 -293 -10 -5 -22 -8 -27 -5 -20 13 -33 -24 -26 -71
8 -57 24 -90 60 -123 l27 -25 822 -3 823 -2 33 22 c46 32 70 82 70 145 0 46
-3 53 -19 53 -54 0 -51 -29 -51 522 0 358 -3 516 -11 531 -24 45 -52 66 -98
72 -78 11 -81 13 -81 51 0 70 -16 84 -215 188 -127 67 -193 96 -207 93 -28 -8
-78 19 -78 41 0 11 -19 28 -53 45 -62 31 -135 36 -182 11z"/>
</g>
</svg>
